<svg width="503" height="106" viewBox="0 0 503 106" fill="none" xmlns="http://www.w3.org/2000/svg">
<path d="M20.6183 78C20.6183 91.8071 31.1357 103 44.1095 103H67.6006C80.5744 103 91.0917 91.8071 91.0917 78C91.0917 64.1929 80.5744 53 67.6006 53M47.0459 103C60.0197 103 70.537 91.8071 70.537 78C70.537 64.1929 60.0197 53 47.0459 53M91.0917 28C91.0917 14.1929 80.5744 3 67.6006 3H44.1095C31.1357 3 20.6183 14.1929 20.6183 28M64.6642 3C51.6904 3 41.1731 14.1929 41.1731 28M3 53H97.1781" stroke="white" stroke-width="6" stroke-linecap="round" stroke-linejoin="round"/>
<path d="M122.623 15.2996V73.4814H113.844V15.2996H122.623ZM135.407 73.4814V15.2996H156.145C160.672 15.2996 164.422 16.1235 167.395 17.7712C170.369 19.4189 172.594 21.6727 174.071 24.5326C175.549 27.3735 176.287 30.5742 176.287 34.1349C176.287 37.7144 175.539 40.9341 174.043 43.7939C172.566 46.6349 170.331 48.8886 167.339 50.5553C164.365 52.203 160.624 53.0269 156.117 53.0269H141.856V45.5837H155.321C158.181 45.5837 160.501 45.0913 162.282 44.1064C164.062 43.1027 165.369 41.739 166.202 40.0155C167.035 38.2921 167.452 36.3318 167.452 34.1349C167.452 31.9379 167.035 29.9871 166.202 28.2826C165.369 26.578 164.053 25.2428 162.253 24.2769C160.473 23.311 158.124 22.828 155.208 22.828H144.185V73.4814H135.407ZM186.579 73.4814V15.2996H223.056V22.8564H195.357V40.5837H221.152V48.1121H195.357V65.9246H223.397V73.4814H186.579ZM234.782 73.4814V15.2996H243.56V43.0837H244.27L268.674 15.2996H279.725L256.259 41.4928L279.81 73.4814H269.242L250.435 47.4871L243.56 55.3849V73.4814H234.782ZM292.821 73.4814H283.503L304.441 15.2996H314.583L335.52 73.4814H326.202L309.753 25.8678H309.299L292.821 73.4814ZM294.384 50.6974H324.611V58.0837H294.384V50.6974Z" fill="white"/>
</svg>
