<svg width="542" height="115" viewBox="0 0 542 115" fill="none" xmlns="http://www.w3.org/2000/svg">
<path d="M24.6429 83.75C24.6429 98.2475 36.3687 110 50.8333 110H77.0238C91.4884 110 103.214 98.2475 103.214 83.75C103.214 69.2525 91.4884 57.5 77.0238 57.5M54.1071 110C68.5717 110 80.2976 98.2475 80.2976 83.75C80.2976 69.2525 68.5717 57.5 54.1071 57.5M103.214 31.25C103.214 16.7525 91.4884 5 77.0238 5H50.8333C36.3687 5 24.6429 16.7525 24.6429 31.25M73.75 5C59.2854 5 47.5595 16.7525 47.5595 31.25M5 57.5H110" stroke="white" stroke-width="10" stroke-linecap="round" stroke-linejoin="round"/>
<path d="M138.445 2.90909V112H121.985V2.90909H138.445ZM162.415 112V2.90909H201.3C209.787 2.90909 216.818 4.45383 222.393 7.54332C227.969 10.6328 232.141 14.8587 234.911 20.2209C237.681 25.5476 239.066 31.549 239.066 38.2251C239.066 44.9368 237.663 50.9737 234.858 56.3359C232.088 61.6626 227.898 65.8885 222.287 69.0135C216.712 72.103 209.698 73.6477 201.246 73.6477H174.506V59.6918H199.755C205.117 59.6918 209.467 58.7685 212.805 56.9219C216.143 55.0398 218.594 52.483 220.156 49.2514C221.719 46.0199 222.5 42.3445 222.5 38.2251C222.5 34.1058 221.719 30.4482 220.156 27.2521C218.594 24.0561 216.126 21.5526 212.752 19.7415C209.414 17.9304 205.011 17.0249 199.542 17.0249H178.874V112H162.415ZM258.362 112V2.90909H326.757V17.0781H274.822V50.3168H323.188V64.4325H274.822V97.831H327.396V112H258.362ZM348.743 112V2.90909H365.202V55.0043H366.534L412.29 2.90909H433.011L389.013 52.0213L433.171 112H413.356L378.093 63.2607L365.202 78.0689V112H348.743ZM457.567 112H440.096L479.354 2.90909H498.37L537.628 112H520.156L489.315 22.7244H488.462L457.567 112ZM460.497 69.2798H517.173V83.1293H460.497V69.2798Z" fill="white"/>
</svg>
